# xmcd
#
# Track frame offsets:
#	150
#	19439
#	29361
#	48977
#	72560
#	91508
#	107332
#	133107
#	147819
#	161511
#	175092
#	186726
#	204418
#
# Disc length: 2909 seconds
#
# Revision: 1
# Processed by: cddbd v1.5.2PL0 Copyright (c) Steve Scherf et al.
# Submitted via: FairStars CD Ripper 1.90
#
DISCID=b30b5b0d
DTITLE=Fiftymen - Balances and Sums
DYEAR=2005
DGENRE=Country rock
TTITLE0=Can't Walk Away
TTITLE1=Not Tonight
TTITLE2=Blood Will Tell
TTITLE3=Twenty Two Minutes
TTITLE4=New Mexico
TTITLE5=For The Sake Of My Pride
TTITLE6=Shine A Light
TTITLE7=Blame Me
TTITLE8=Sick Of Being Tired
TTITLE9=Try To Hide
TTITLE10=We Gotta Go
TTITLE11=Train Ain't Gonna Wait
TTITLE12=Talkin' 'bout You
EXTD=
EXTT0=
EXTT1=
EXTT2=
EXTT3=
EXTT4=
EXTT5=
EXTT6=
EXTT7=
EXTT8=
EXTT9=
EXTT10=
EXTT11=
EXTT12=
PLAYORDER=
